<?xml version="1.0" encoding="UTF-8"?>
<svg width="16px" height="20px" viewBox="0 0 16 20" version="1.1" xmlns="http://www.w3.org/2000/svg" xmlns:xlink="http://www.w3.org/1999/xlink">
    <title>Icon</title>
    <g id="Design" stroke="none" stroke-width="1" fill="none" fill-rule="evenodd">
        <g id="1.0_Desktop_Frontpage" transform="translate(-1385.000000, -68.000000)" stroke="#FFFFFF">
            <g id="Topbar" transform="translate(40.000000, 63.000000)">
                <g id="Cart" transform="translate(1291.000000, 6.000000)">
                    <g id="Icon" transform="translate(55.000000, 0.000000)">
                        <path d="M13.5569875,17.5914857 L0.8799875,17.5914857 C0.6367375,17.5914857 0.4372375,17.3960571 0.4372375,17.1577714 L0.4372375,4.73948571 C0.4372375,4.5012 0.6367375,4.30577143 0.8799875,4.30577143 L13.5569875,4.30577143 C13.8002375,4.30577143 13.9997375,4.5012 13.9997375,4.73948571 L13.9997375,17.1577714 C13.9997375,17.3960571 13.8002375,17.5914857 13.5569875,17.5914857 Z" id="Stroke-1"></path>
                        <path d="M3.93925,8.15871429 L3.93925,3.61328571 C3.93925,1.86128571 5.40225,0.428142857 7.189875,0.428142857 C8.978375,0.428142857 10.441375,1.86128571 10.441375,3.61328571 L10.441375,8.15871429" id="Stroke-3"></path>
                    </g>
                </g>
            </g>
        </g>
    </g>
</svg>